<?xml version="1.0" standalone="no"?>
<!DOCTYPE svg PUBLIC "-//W3C//DTD SVG 20010904//EN"
 "http://www.w3.org/TR/2001/REC-SVG-20010904/DTD/svg10.dtd">
<svg version="1.0" xmlns="http://www.w3.org/2000/svg"
 width="1280.000000pt" height="825.000000pt" viewBox="0 0 1280.000000 825.000000"
 preserveAspectRatio="xMidYMid meet">
<metadata>
Created by potrace 1.15, written by Peter Selinger 2001-2017
</metadata>
<g transform="translate(0.000000,825.000000) scale(0.100000,-0.100000)"
fill="#b0b2ae" stroke="none">
<path d="M4734 8219 c-62 -39 -242 -221 -357 -360 -333 -402 -716 -960 -1045
-1520 -117 -200 -113 -189 -66 -189 50 0 185 -33 247 -59 109 -47 216 -140
274 -239 14 -24 27 -42 28 -40 18 22 234 426 338 633 384 768 686 1537 687
1751 0 61 -33 68 -106 23z"/>
<path d="M6490 7524 c-361 -57 -708 -203 -1090 -457 -220 -147 -370 -275 -370
-316 0 -12 5 -21 10 -21 15 0 124 56 357 182 380 206 657 311 968 370 174 32
462 32 623 0 239 -48 455 -142 692 -300 274 -183 438 -328 950 -842 201 -202
419 -415 485 -475 265 -240 483 -395 719 -510 247 -121 412 -160 686 -158 201
0 306 18 501 83 188 62 309 130 309 172 0 25 -24 23 -155 -12 -286 -77 -328
-84 -515 -84 -144 0 -194 4 -280 23 -267 57 -477 155 -705 330 -155 119 -311
265 -840 791 -559 555 -665 653 -854 793 -282 210 -581 351 -875 413 -156 33
-464 42 -616 18z"/>
<path d="M6420 6953 c-622 -64 -1172 -320 -1518 -707 -157 -176 -260 -381
-332 -660 -55 -213 -64 -284 -65 -521 0 -256 10 -306 95 -481 110 -227 285
-403 490 -491 253 -109 682 -152 877 -87 127 42 323 161 439 267 264 242 352
733 195 1091 -84 192 -266 358 -469 429 -78 28 -102 31 -234 35 -167 5 -268
-11 -380 -58 -132 -55 -259 -165 -303 -263 -60 -133 -71 -330 -22 -437 76
-169 207 -263 367 -264 94 0 163 28 220 90 62 67 39 81 -73 43 -119 -41 -261
-1 -317 88 -88 138 -54 354 71 453 117 93 323 123 499 74 89 -25 166 -72 229
-140 170 -182 197 -452 70 -711 -102 -207 -332 -333 -609 -333 -155 0 -278 38
-412 127 -263 174 -354 499 -253 899 70 277 265 552 518 731 429 303 1091 415
1547 263 110 -37 302 -135 426 -219 211 -141 339 -252 919 -791 718 -669 965
-866 1284 -1025 340 -170 774 -241 1081 -176 548 115 1127 490 1407 911 218
326 329 771 294 1178 -26 297 -106 592 -162 592 -12 0 -11 -133 2 -245 16
-141 13 -413 -6 -545 -80 -549 -341 -954 -790 -1230 -187 -115 -430 -220 -629
-271 -157 -40 -376 -51 -526 -25 -241 42 -491 163 -765 369 -189 143 -337 279
-865 802 -245 242 -506 492 -580 556 -501 431 -845 616 -1250 674 -95 13 -372
18 -470 8z"/>
<path d="M6672 5993 c-37 -5 -52 -28 -31 -48 8 -7 75 -34 149 -60 174 -60 370
-157 490 -242 114 -82 332 -295 462 -453 53 -63 180 -227 283 -365 315 -419
451 -580 661 -785 265 -258 517 -426 850 -566 276 -115 773 -181 1110 -145
425 44 829 214 1179 496 308 248 620 639 790 990 66 137 193 490 180 503 -12
12 -81 -74 -174 -221 -360 -571 -812 -1011 -1266 -1233 -506 -247 -1075 -279
-1630 -92 -128 43 -352 154 -475 235 -262 173 -443 348 -894 863 -539 616
-748 807 -1056 964 -204 105 -484 175 -628 159z"/>
<path d="M2055 5819 c-871 -42 -1856 -184 -2016 -292 -43 -29 -43 -55 -1 -84
167 -112 859 -223 1702 -273 263 -15 870 -25 870 -14 0 6 -4 14 -8 20 -5 5
-19 34 -30 64 -73 186 -68 376 12 527 l34 63 -197 -1 c-108 -1 -272 -6 -366
-10z"/>
<path d="M3135 5821 c-93 -24 -181 -95 -222 -179 -25 -50 -28 -68 -28 -152 0
-78 4 -103 23 -141 36 -74 87 -125 160 -161 59 -29 76 -33 147 -33 98 1 167
29 234 96 69 69 96 136 96 239 0 71 -4 94 -26 141 -54 115 -163 189 -288 195
-36 2 -79 0 -96 -5z"/>
<path d="M3759 5078 c-115 -159 -280 -254 -461 -267 l-87 -6 108 -180 c521
-871 1329 -1915 1483 -1915 112 0 -47 528 -373 1237 -121 264 -338 690 -484
948 -65 116 -123 218 -130 227 -10 15 -17 10 -56 -44z"/>
<path d="M2870 2345 l0 -2345 340 0 340 0 0 1801 0 1801 -325 529 c-179 291
-328 536 -331 544 -4 8 -10 15 -15 15 -5 0 -9 -976 -9 -2345z"/>
</g>
</svg>
